<svg width="80" height="80" viewBox="0 0 80 80" fill="none" xmlns="http://www.w3.org/2000/svg">
<g clip-path="url(#clip0_1_97)">
<path d="M78.8035 49.6732C73.4591 71.1132 51.7369 84.1463 30.3276 78.8016C8.88695 73.4573 -4.14617 51.736 1.19852 30.327C6.54289 8.88696 28.2335 -4.14617 49.6741 1.19852C71.0835 6.51164 84.1482 28.2329 78.8035 49.6732Z" fill="url(#paint0_linear_1_97)"/>
<path d="M59.0449 35.0159C59.8261 29.7034 55.7949 26.8284 50.2324 24.9222L52.0449 17.7034L47.6699 16.6097L45.9199 23.6409C44.7636 23.3597 43.5761 23.0784 42.3886 22.8284L44.1386 15.7659L39.7636 14.6722L37.9824 21.8597C37.0136 21.6409 36.0761 21.4222 35.1699 21.2034V21.1722L29.1074 19.6722L27.9511 24.3597C27.9511 24.3597 31.2011 25.1097 31.1386 25.1409C32.9199 25.5784 33.2324 26.7659 33.1699 27.7034L31.1074 35.9222C31.2324 35.9534 31.3886 35.9847 31.5761 36.0784C31.4199 36.0472 31.2636 36.0159 31.1074 35.9534L28.2324 47.4534C28.0136 47.9847 27.4511 48.7972 26.2324 48.4847C26.2636 48.5472 23.0449 47.7034 23.0449 47.7034L20.8574 52.7347L26.5761 54.1722C27.6386 54.4534 28.6699 54.7034 29.7011 54.9847L27.8886 62.2659L32.2636 63.3597L34.0761 56.1409C35.2636 56.4534 36.4511 56.7659 37.5761 57.0472L35.7949 64.2347L40.1699 65.3284L41.9824 58.0472C49.4824 59.4534 55.1074 58.8909 57.4511 52.1097C59.3574 46.6722 57.3574 43.5159 53.4199 41.4534C56.3261 40.7972 58.4824 38.8909 59.0449 35.0159ZM49.0136 49.0784C47.6699 54.5159 38.4824 51.5784 35.5136 50.8284L37.9199 41.1722C40.8886 41.9222 50.4511 43.3909 49.0136 49.0784ZM50.3886 34.9222C49.1386 39.8909 41.5136 37.3597 39.0449 36.7347L41.2324 27.9847C43.7011 28.6097 51.6699 29.7659 50.3886 34.9222Z" fill="white"/>
<g filter="url(#filter0_d_1_97)">
<path d="M58.1875 35.3437C58.9688 30.0313 54.9375 27.1562 49.375 25.25L51.1875 18.0312L46.8125 16.9375L45.0625 23.9687C43.9063 23.6875 42.7188 23.4062 41.5313 23.1562L43.2812 16.0937L38.9063 15L37.125 22.1875C36.1563 21.9687 35.2188 21.75 34.3125 21.5312V21.5L28.25 20L27.0937 24.6875C27.0937 24.6875 30.3437 25.4375 30.2812 25.4687C32.0625 25.9062 32.375 27.0937 32.3125 28.0312L30.25 36.25C30.375 36.2812 30.5312 36.3125 30.7187 36.4062C30.5625 36.375 30.4062 36.3437 30.25 36.2812L27.375 47.7812C27.1563 48.3125 26.5937 49.125 25.375 48.8125C25.4062 48.875 22.1875 48.0312 22.1875 48.0312L20 53.0625L25.7187 54.5C26.7812 54.7812 27.8125 55.0312 28.8437 55.3125L27.0313 62.5937L31.4063 63.6875L33.2187 56.4687C34.4062 56.7812 35.5938 57.0937 36.7188 57.375L34.9375 64.5625L39.3125 65.6562L41.125 58.375C48.625 59.7812 54.25 59.2187 56.5938 52.4375C58.5 47 56.5 43.8437 52.5625 41.7812C55.4688 41.125 57.625 39.2187 58.1875 35.3437V35.3437ZM48.1563 49.4062C46.8125 54.8437 37.625 51.9062 34.6562 51.1562L37.0625 41.5C40.0313 42.25 49.5938 43.7187 48.1563 49.4062ZM49.5313 35.25C48.2813 40.2187 40.6563 37.6875 38.1875 37.0625L40.375 28.3125C42.8438 28.9375 50.8125 30.0937 49.5313 35.25Z" fill="white"/>
</g>
</g>
<defs>
<filter id="filter0_d_1_97" x="16" y="15" width="46.2845" height="58.6562" filterUnits="userSpaceOnUse" color-interpolation-filters="sRGB">
<feFlood flood-opacity="0" result="BackgroundImageFix"/>
<feColorMatrix in="SourceAlpha" type="matrix" values="0 0 0 0 0 0 0 0 0 0 0 0 0 0 0 0 0 0 127 0" result="hardAlpha"/>
<feOffset dy="4"/>
<feGaussianBlur stdDeviation="2"/>
<feComposite in2="hardAlpha" operator="out"/>
<feColorMatrix type="matrix" values="0 0 0 0 0 0 0 0 0 0 0 0 0 0 0 0 0 0 0.25 0"/>
<feBlend mode="normal" in2="BackgroundImageFix" result="effect1_dropShadow_1_97"/>
<feBlend mode="normal" in="SourceGraphic" in2="effect1_dropShadow_1_97" result="shape"/>
</filter>
<linearGradient id="paint0_linear_1_97" x1="39.9785" y1="-0.0190779" x2="39.9785" y2="79.992" gradientUnits="userSpaceOnUse">
<stop stop-color="#F9AA4B"/>
<stop offset="1" stop-color="#F7931A"/>
</linearGradient>
<clipPath id="clip0_1_97">
<rect width="80" height="80" fill="white"/>
</clipPath>
</defs>
</svg>
